<svg id="b93405e1-9335-481f-b653-44d6b753cbea" data-name="Layer 1" xmlns="http://www.w3.org/2000/svg" width="972.04819" height="599.5" viewBox="0 0 972.04819 599.5"><path d="M549.69578,749.75a324.76793,324.76793,0,0,1-218.45434-84.19189,1.50012,1.50012,0,0,1,2.01416-2.22364A321.77222,321.77222,0,0,0,549.69578,746.75c112.2981,0,214.773-57.01709,274.12012-152.52a1.49979,1.49979,0,1,1,2.54785,1.583,325.28875,325.28875,0,0,1-276.668,153.937Z" transform="translate(-113.9759 -150.25)" fill="#3eadc9"/><polygon points="695.395 446.595 696.159 449.499 710.46 445.722 713.183 460.263 716.134 459.707 712.814 441.998 695.395 446.595" fill="#3eadc9"/><polygon points="233.884 511.537 233.964 514.539 219.176 514.914 220.632 529.636 217.643 529.929 215.875 511.998 233.884 511.537" fill="#3eadc9"/><path d="M412.21868,387.06132V548.63789a4.06656,4.06656,0,0,1-4.06522,4.06793h-274.289a3.42867,3.42867,0,0,1-.583-.04534,4.06416,4.06416,0,0,1-3.48494-4.02259V387.06132a4.06654,4.06654,0,0,1,4.06518-4.06789H408.15075a4.06655,4.06655,0,0,1,4.06793,4.06521Z" transform="translate(-113.9759 -150.25)" fill="#e6e6e6"/><circle cx="84.96085" cy="293.12549" r="35.68826" fill="#3eadc9"/><path d="M310.85114,553.35358H135.77525a3.5694,3.5694,0,0,1-.65425-.05183l82.80283-143.42642a5.79764,5.79764,0,0,1,10.09208,0L283.587,506.12559l2.6623,4.60558Z" transform="translate(-113.9759 -150.25)" fill="#3f3d56"/><polygon points="196.875 403.103 137.1 403.103 166.443 360.481 168.556 357.411 169.611 355.875 172.274 360.481 196.875 403.103" opacity="0.2" style="isolation:isolate"/><path d="M408.33212,553.35358H256.90585l29.34345-42.62243,2.11167-3.0704,38.23713-55.5452c2.50681-3.64039,8.53745-3.86709,11.48473-.68661a6.91157,6.91157,0,0,1,.55064.68661Z" transform="translate(-113.9759 -150.25)" fill="#3f3d56"/><path d="M427.6506,376.85693a13.03563,13.03563,0,0,0-12.241-8.60693H126.98193a13.001,13.001,0,0,0-13.006,13.006V609.244a13.02447,13.02447,0,0,0,13.006,13.006H415.40964a13.02446,13.02446,0,0,0,13.006-13.006V381.256A12.90708,12.90708,0,0,0,427.6506,376.85693ZM426.88554,609.244a11.48989,11.48989,0,0,1-11.4759,11.4759H126.98193A11.48989,11.48989,0,0,1,115.506,609.244V381.256a11.48989,11.48989,0,0,1,11.47591-11.4759H415.40964a11.48989,11.48989,0,0,1,11.4759,11.4759Z" transform="translate(-113.9759 -150.25)" fill="#3f3d56"/><path d="M1060.38951,180.02225V435.74579a6.43607,6.43607,0,0,1-6.43394,6.43822h-434.111a5.42512,5.42512,0,0,1-.92269-.07176,6.43224,6.43224,0,0,1-5.51553-6.36646V180.02225a6.436,6.436,0,0,1,6.43386-6.43816h434.11107a6.43606,6.43606,0,0,1,6.43823,6.43391Z" transform="translate(-113.9759 -150.25)" fill="#e6e6e6"/><circle cx="608.85716" cy="118.89939" r="56.48299" fill="#3eadc9"/><path d="M899.95742,443.20921H622.8688a5.64951,5.64951,0,0,1-1.03547-.082L752.88347,216.12946a9.17579,9.17579,0,0,1,15.97251,0l87.9511,152.33308,4.21356,7.28916Z" transform="translate(-113.9759 -150.25)" fill="#3f3d56"/><polygon points="785.981 292.959 691.377 292.959 737.818 225.502 741.161 220.643 742.832 218.212 747.045 225.502 785.981 292.959" opacity="0.2" style="isolation:isolate"/><path d="M1054.23833,443.20921H814.57943l46.44121-67.45755,3.34209-4.85945,60.517-87.91012c3.96746-5.76155,13.512-6.12036,18.17662-1.08668a10.936,10.936,0,0,1,.87147,1.08668Z" transform="translate(-113.9759 -150.25)" fill="#3f3d56"/><path d="M1084.81325,163.872a20.6312,20.6312,0,0,0-19.37349-13.622H608.95181a20.57636,20.57636,0,0,0-20.58434,20.58434V531.66566A20.61353,20.61353,0,0,0,608.95181,552.25h456.488a20.61353,20.61353,0,0,0,20.58434-20.58434V170.83434A20.42794,20.42794,0,0,0,1084.81325,163.872Zm-1.21084,367.79367a18.18479,18.18479,0,0,1-18.16265,18.16265H608.95181a18.18479,18.18479,0,0,1-18.16265-18.16265V170.83434a18.18479,18.18479,0,0,1,18.16265-18.16265h456.488a18.18479,18.18479,0,0,1,18.16265,18.16265Z" transform="translate(-113.9759 -150.25)" fill="#3f3d56"/></svg>